<svg id="Шар_1" xmlns="http://www.w3.org/2000/svg" viewBox="0 0 37 50"><style>.st0{fill:#22b9f0}</style><title>Ресурс 3</title><g id="_x35_c841f9a-24bd-418e-b597-04780c7e8cb4"><g id="bf3bad9a-75d0-4961-bb25-af6fe00bd1a0"><path class="st0" d="M18.5 23.7c3.5 0 6.4-2.9 6.4-6.4 0-3.5-2.9-6.4-6.4-6.4-3.5 0-6.4 2.9-6.4 6.4 0 3.5 2.9 6.4 6.4 6.4zm0-11c2.5 0 4.6 2 4.6 4.6s-2 4.6-4.6 4.6c-2.5 0-4.6-2-4.6-4.6 0-2.5 2.1-4.6 4.6-4.6z"/><path class="st0" d="M18.4 50l14-20.3c5.2-7.6 4.5-17.8-1.6-24.6C24-1.7 13-1.7 6.2 5.1 0 12-.7 22.2 4.6 29.8L18.4 50zM7.3 6.3C13.4.1 23.4.1 29.5 6.2l.1.1c5.6 6.2 6.1 15.5 1.3 22.4L18.4 46.8 5.9 28.6c-4.7-6.8-4.1-16 1.4-22.3z"/></g></g></svg>